<?xml version="1.0" encoding="UTF-8" standalone="no"?>
<svg
   xmlns:dc="http://purl.org/dc/elements/1.1/"
   xmlns:cc="http://creativecommons.org/ns#"
   xmlns:rdf="http://www.w3.org/1999/02/22-rdf-syntax-ns#"
   xmlns:svg="http://www.w3.org/2000/svg"
   xmlns="http://www.w3.org/2000/svg"
   id="svg4510"
   version="1.1"
   viewBox="0 0 67.733332 67.733335"
   height="256"
   width="256">
  <defs
     id="defs4504" />
  <metadata
     id="metadata4507">
    <rdf:RDF>
      <cc:Work
         rdf:about="">
        <dc:format>image/svg+xml</dc:format>
        <dc:type
           rdf:resource="http://purl.org/dc/dcmitype/StillImage" />
        <dc:title></dc:title>
      </cc:Work>
    </rdf:RDF>
  </metadata>
  <g
     transform="translate(0,-229.26665)"
     id="layer1">
    <path
       id="path5102"
       d="m 36.665012,282.76957 c 0,0 14.084641,4.91391 21.695736,-1.03329 7.611096,-5.9472 3.838534,-22.70471 3.838534,-22.70471 l -27.754932,4.20676 z"
       style="fill:#9f8802;fill-opacity:1;stroke:none;stroke-width:0.38294047px;stroke-linecap:butt;stroke-linejoin:miter;stroke-opacity:1" />
    <path
       id="path5317"
       d="m 45.100398,267.71486 c -20.491253,6.29241 -13.515465,9.00518 -13.515465,9.00518 15.059238,5.30667 23.766418,6.77116 30.324227,-2.8352 0,0 3.682491,-12.46239 -16.808762,-6.16998 z"
       style="fill:#f7a67f;fill-opacity:1;stroke:none;stroke-width:0.4171131px;stroke-linecap:butt;stroke-linejoin:miter;stroke-opacity:1" />
    <path
       id="path5315"
       d="m 33.711669,274.88794 1.089426,5.24757 c 0,0 8.088218,4.54041 18.287122,2.53131 10.198905,-2.00911 9.322747,-6.58348 9.322747,-6.58348 l -0.20891,-3.74103 c 0,0 -0.56787,5.08428 -9.413444,7.01954 -8.845574,1.93526 -19.076941,-4.47391 -19.076941,-4.47391 z"
       style="fill:#f26d2b;fill-opacity:1;stroke:none;stroke-width:0.38294047px;stroke-linecap:butt;stroke-linejoin:miter;stroke-opacity:1" />
    <path
       id="path5356"
       d="m 33.503104,266.45721 25.461483,-4.03908 c 0,0 8.045273,13.07842 -3.679413,11.84315 -11.724686,-1.23528 -7.108907,4.49124 -12.620597,3.5674 -5.51169,-0.92384 -9.161473,-11.37147 -9.161473,-11.37147 z"
       style="fill:#c97b54;fill-opacity:1;stroke:none;stroke-width:0.28631386px;stroke-linecap:butt;stroke-linejoin:miter;stroke-opacity:1" />
    <path
       id="path5313"
       d="m 56.774016,261.11151 -26.088115,6.44597 10.774796,8.43004 c 7.574883,-3.67059 18.69945,-3.00181 19.394967,-6.42249 l 0.03523,-5.32924 z m 0.189572,4.23375 a 0.7411282,0.59651762 0 0 1 0.740948,0.59611 0.7411282,0.59651762 0 0 1 -0.740948,0.59668 0.7411282,0.59651762 0 0 1 -0.74151,-0.59668 0.7411282,0.59651762 0 0 1 0.74151,-0.59611 z m -13.412577,3.3983 a 2.6572152,2.2956891 0 0 1 2.656793,2.29554 2.6572152,2.2956891 0 0 1 -2.656793,2.29555 2.6572152,2.2956891 0 0 1 -2.65735,-2.29555 2.6572152,2.2956891 0 0 1 2.65735,-2.29554 z"
       style="fill:#e8ea9f;fill-opacity:1;stroke:none;stroke-width:0.35897467px;stroke-linecap:butt;stroke-linejoin:miter;stroke-opacity:1" />
    <path
       id="path5303"
       d="m 34.946156,279.12009 c 0,0 5.707829,1.14003 5.744107,0 0.03628,-1.14004 -6.42802,-7.69243 -1.042109,-8.94812 -0.833158,-3.59809 6.808107,-2.64423 8.622072,-2.54001 1.813966,0.10421 1.219286,2.14031 1.219286,2.14031 7.354473,-10.12792 12.77724,-6.46303 9.770085,0.31801 0,0 3.632247,-1.77107 3.447516,-3.95331 0.171474,-14.76146 -20.611258,-3.13047 -27.334659,-1.54562 l -5.028523,10.09285 z"
       style="fill:#42e760;fill-opacity:1;stroke:none;stroke-width:0.38294047px;stroke-linecap:butt;stroke-linejoin:miter;stroke-opacity:1" />
    <path
       id="path5074"
       d="m 8.1400229,247.28169 c 0,0 -9.2280756,6.09469 -5.60901,12.28179 3.6190665,6.18708 34.8878671,25.57442 36.3135091,24.12842 1.425639,-1.44601 -3.801714,-2.19164 -2.899116,-11.9913 0.902598,-9.79965 7.686116,-12.13711 7.686116,-12.13711 z"
       style="opacity:1;fill:#fdee93;fill-opacity:1;stroke:none;stroke-width:0.38294047px;stroke-linecap:butt;stroke-linejoin:miter;stroke-opacity:1" />
    <path
       id="path5055"
       d="m 28.602309,263.19074 c 21.298775,8.37877 51.13463,-4.93556 24.429154,-7.93832 -26.705477,-3.00276 -36.277823,-14.43055 -42.501751,-10.69343 -11.716324,5.27445 -3.2261776,10.25299 18.072597,18.63175 z"
       style="fill:#fef7ca;fill-opacity:1;stroke:none;stroke-width:0.38294047px;stroke-linecap:butt;stroke-linejoin:miter;stroke-opacity:1" />
    <path
       id="path5076"
       d="m 46.339321,253.95446 c 9.603141,6.35245 20.872888,8.2915 27.561518,17.69741 l -7.929981,5.02876 -2.224265,-2.12755 -9.864122,1.25718 2.804509,2.6111 -7.833275,1.35391 c -5.618675,-2.34148 -8.988146,-8.51402 -8.316808,-0.29013 L 32.316794,266.5264 Z"
       style="fill:none;stroke:none;stroke-width:0.38294047px;stroke-linecap:butt;stroke-linejoin:miter;stroke-opacity:1" />
    <g
       style="fill:#000000;fill-opacity:1"
       transform="matrix(0.04020185,0,0,0.04020185,7.1698512,242.07787)"
       id="g5495">
      <path
         style="fill:#000000;fill-opacity:1"
         d="m 423.2,492.19 c 12.69,20.72 29.2,35.95 58.4,35.95 24.53,0 40.2,-12.26 40.2,-29.2 0,-20.3 -16.1,-27.49 -43.1,-39.3 l -14.8,-6.35 c -42.72,-18.2 -71.1,-41 -71.1,-89.2 0,-44.4 33.83,-78.2 86.7,-78.2 37.64,0 64.7,13.1 84.2,47.4 l -46.1,29.6 c -10.15,-18.2 -21.1,-25.37 -38.1,-25.37 -17.34,0 -28.33,11 -28.33,25.37 0,17.76 11,24.95 36.4,35.95 l 14.8,6.34 c 50.3,21.57 78.7,43.56 78.7,93 0,53.3 -41.87,82.5 -98.1,82.5 -54.98,0 -90.5,-26.2 -107.88,-60.54 z m -209.13,5.13 c 9.3,16.5 17.76,30.45 38.1,30.45 19.45,0 31.72,-7.61 31.72,-37.2 v -201.3 h 59.2 v 202.1 c 0,61.3 -35.94,89.2 -88.4,89.2 -47.4,0 -74.85,-24.53 -88.81,-54.075 z"
         id="path5483" />
    </g>
  </g>
</svg>
